<?xml version="1.0" encoding="UTF-8" standalone="no"?>
<svg
   xmlns:dc="http://purl.org/dc/elements/1.1/"
   xmlns:cc="http://creativecommons.org/ns#"
   xmlns:rdf="http://www.w3.org/1999/02/22-rdf-syntax-ns#"
   xmlns:svg="http://www.w3.org/2000/svg"
   xmlns="http://www.w3.org/2000/svg"
   xmlns:sodipodi="http://sodipodi.sourceforge.net/DTD/sodipodi-0.dtd"
   xmlns:inkscape="http://www.inkscape.org/namespaces/inkscape"
   id="Layer_1"
   data-name="Layer 1"
   viewBox="0 0 1000 500"
   version="1.1"
   sodipodi:docname="Dasharo.svg"
   width="1000"
   height="500"
   inkscape:version="0.92.5 (2060ec1f9f, 2020-04-08)">
  <metadata
     id="metadata25">
    <rdf:RDF>
      <cc:Work
         rdf:about="">
        <dc:format>image/svg+xml</dc:format>
        <dc:type
           rdf:resource="http://purl.org/dc/dcmitype/StillImage" />
        <dc:title></dc:title>
      </cc:Work>
    </rdf:RDF>
  </metadata>
  <sodipodi:namedview
     pagecolor="#ffffff"
     bordercolor="#666666"
     borderopacity="1"
     objecttolerance="10"
     gridtolerance="10"
     guidetolerance="10"
     inkscape:pageopacity="0"
     inkscape:pageshadow="2"
     inkscape:window-width="1848"
     inkscape:window-height="1016"
     id="namedview23"
     showgrid="false"
     inkscape:zoom="0.472"
     inkscape:cx="852.01378"
     inkscape:cy="569.43588"
     inkscape:window-x="72"
     inkscape:window-y="27"
     inkscape:window-maximized="1"
     inkscape:current-layer="Layer_1" />
  <defs
     id="defs4">
    <style
       id="style2">.cls-1{fill:#1d1d1b;}</style>
  </defs>
  <path
     class="cls-1"
     d="m 62.55,352.65 h 49.9 q 18.78,0 33.32,7.44 A 54.8,54.8 0 0 1 168.36,381 q 8,13.46 8,30.88 0,17.42 -8,30.87 a 54.73,54.73 0 0 1 -22.59,20.89 q -14.55,7.44 -33.32,7.44 h -49.9 z m 48.88,103.69 q 14.38,0 25.29,-5.58 a 40.31,40.31 0 0 0 16.83,-15.64 48.65,48.65 0 0 0 0,-46.52 40.27,40.27 0 0 0 -16.83,-15.6 q -10.91,-5.6 -25.29,-5.59 h -32 v 89 z"
     id="path6"
     inkscape:connector-curvature="0"
     style="fill:#1d1d1b" />
  <path
     class="cls-1"
     d="m 276,441.46 h -62.9 l -13,29.6 H 182.65 L 236.27,352.65 H 253 l 53.79,118.41 h -17.74 z m -5.91,-13.54 -25.55,-58 -25.54,58 z"
     id="path8"
     inkscape:connector-curvature="0"
     style="fill:#1d1d1b" />
  <path
     class="cls-1"
     d="m 333.11,468.27 q -12.42,-4.14 -19.53,-10.74 l 6.25,-13.2 a 52,52 0 0 0 17.34,9.9 63.67,63.67 0 0 0 21.74,3.8 q 14.71,0 22,-5 7.29,-5 7.28,-13.27 a 13.08,13.08 0 0 0 -4,-9.9 26.49,26.49 0 0 0 -9.81,-5.83 q -5.83,-2 -16.49,-4.57 a 171.62,171.62 0 0 1 -21.56,-6.46 35.58,35.58 0 0 1 -14,-9.9 q -5.84,-6.67 -5.84,-18 a 30.47,30.47 0 0 1 5,-17.09 q 5,-7.6 15.14,-12.18 10.14,-4.58 25.21,-4.56 a 79.86,79.86 0 0 1 20.63,2.7 54.9,54.9 0 0 1 17.43,7.79 l -5.58,13.52 a 61.54,61.54 0 0 0 -15.9,-7.18 59.28,59.28 0 0 0 -16.58,-2.46 q -14.39,0 -21.57,5.25 -7.18,5.25 -7.27,13.56 a 13,13 0 0 0 4.06,9.9 28.15,28.15 0 0 0 10.06,5.91 155.29,155.29 0 0 0 16.33,4.49 165.05,165.05 0 0 1 21.55,6.43 36.07,36.07 0 0 1 14,9.81 q 5.83,6.6 5.83,17.76 a 30.23,30.23 0 0 1 -5.07,17 q -5.07,7.71 -15.39,12.18 -10.32,4.47 -25.38,4.49 a 81.15,81.15 0 0 1 -25.88,-4.15 z"
     id="path10"
     inkscape:connector-curvature="0"
     style="fill:#1d1d1b" />
  <path
     class="cls-1"
     d="m 531.28,352.65 v 118.41 h -16.91 v -52.78 h -68 v 52.78 H 429.45 V 352.65 h 16.92 v 50.91 h 68 v -50.91 z"
     id="path12"
     inkscape:connector-curvature="0"
     style="fill:#1d1d1b" />
  <path
     class="cls-1"
     d="m 642.25,441.46 h -62.92 l -13,29.6 H 548.87 L 602.5,352.65 h 16.75 L 673,471.06 h -17.72 z m -5.92,-13.54 -25.54,-58 -25.54,58 z"
     id="path14"
     inkscape:connector-curvature="0"
     style="fill:#1d1d1b" />
  <path
     class="cls-1"
     d="m 769.8,471.06 -25.54,-36.37 q -4.74,0.34 -7.45,0.34 h -29.26 v 36 H 690.63 V 352.65 h 46.18 q 23,0 36.2,11 13.2,11 13.2,30.27 0,13.71 -6.77,23.35 -6.77,9.64 -19.28,14 l 28.08,39.75 z m -9,-57.34 q 8.46,-6.94 8.46,-19.8 0,-12.86 -8.46,-19.7 -8.46,-6.86 -24.52,-6.86 h -28.73 v 53.29 h 28.76 q 16.07,0 24.52,-6.93 z"
     id="path16"
     inkscape:connector-curvature="0"
     style="fill:#1d1d1b" />
  <path
     class="cls-1"
     d="m 834.76,464.55 a 58.1,58.1 0 0 1 -22.59,-21.74 62.53,62.53 0 0 1 0,-61.91 58.17,58.17 0 0 1 22.59,-21.74 70,70 0 0 1 64.44,0 57.74,57.74 0 0 1 22.5,21.66 63.39,63.39 0 0 1 0,62.08 57.65,57.65 0 0 1 -22.5,21.65 69.89,69.89 0 0 1 -64.44,0 z m 55.73,-13.11 a 43.51,43.51 0 0 0 16.41,-16.32 48.09,48.09 0 0 0 0,-46.52 43.46,43.46 0 0 0 -16.41,-16.33 46.59,46.59 0 0 0 -23.43,-5.92 47.49,47.49 0 0 0 -23.59,5.92 43.07,43.07 0 0 0 -16.58,16.33 48.09,48.09 0 0 0 0,46.52 43.12,43.12 0 0 0 16.58,16.32 47.49,47.49 0 0 0 23.59,5.92 46.59,46.59 0 0 0 23.43,-5.92 z"
     id="path18"
     inkscape:connector-curvature="0"
     style="fill:#1d1d1b" />
  <path
     class="cls-1"
     d="m 597.82,39.39 a 91.3,91.3 0 0 0 -10,-2.26 l -1,7.89 c -0.12,1.05 -13.16,105 -111.13,196.41 A 77.79,77.79 0 0 1 465.1,229.54 c 30.54,-26.3 53,-56.42 66.62,-77.56 1.88,-2.91 5.48,-8.8 8.88,-15.47 a 324,324 0 0 0 16.79,-32.79 l 1.19,-2.82 h -19.3 l -16.62,12.38 a 4.93,4.93 0 0 1 -6.59,-0.62 L 505.42,101 l -0.09,-12.23 13.61,-0.13 -0.13,-14.06 -13.61,0.12 -0.12,-13.61 -14.07,0.13 0.13,13.61 -13.61,0.13 0.13,14.06 13.61,-0.12 0.09,12.62 -10.25,11.12 a 4.93,4.93 0 0 1 -6.58,0.61 L 457.9,100.9 h -19.32 l 1.19,2.82 c 0.55,1.29 10.24,24 29.11,52.83 A 10.17,10.17 0 0 1 468,168.91 c -8.44,9.44 -21.23,22.36 -28.24,29.09 -11.17,-14.32 -40.71,-57.86 -60.71,-139.29 82,-30.35 186.1,-13.13 187.17,-12.95 l 2.21,-12.94 C 456.12,12.58 362.55,50.1 362.55,50.1 l 1.38,5.87 c 0.17,0.73 0.35,1.43 0.52,2.15 6.07,24 27.44,97.74 74.43,160 l 5.08,-4.73 c 1.17,-1.08 27,-25.18 37.3,-39 v -0.05 a 20,20 0 0 0 1.09,-23.44 C 477,142.7 464.26,123.85 463.98,123.24 l 13.16,9.6 a 4.94,4.94 0 0 0 6.64,-0.68 l 14.77,-16.62 14.77,16.62 a 4.94,4.94 0 0 0 6.64,0.68 l 14.07,-10.33 c -8.6,15.44 -24.15,37.84 -40.92,58.26 h 0.06 A 321,321 0 0 1 451,223 l -5,4.15 a 280,280 0 0 0 30.71,32.41 l 3.73,-3.37 c 91.8,-83 114.43,-175.35 119.25,-202.11 a 128.84,128.84 0 0 1 14,3.77 C 582.79,195 488.73,268.13 487.72,268.9 l 11.66,8.68 c 0,0 83,-66.82 120,-186.49 3.48,-11.49 6.62,-23.48 9.27,-36 l 1.12,-5.37 C 619.09,45.63 608.4,42.23 597.82,39.39 Z"
     id="path20"
     inkscape:connector-curvature="0"
     style="fill:#1d1d1b" />
</svg>
