<svg xmlns="http://www.w3.org/2000/svg" xmlns:xlink="http://www.w3.org/1999/xlink" contentStyleType="text/css" height="1410px" preserveAspectRatio="none" style="width:920px;height:1410px;background:#FFFFFF;" version="1.1" viewBox="0 0 920 1410" width="920px" zoomAndPan="magnify"><defs><filter height="300%" id="fchgmy9re0hcl" width="300%" x="-1" y="-1"><feGaussianBlur result="blurOut" stdDeviation="2.0"/><feColorMatrix in="blurOut" result="blurOut2" type="matrix" values="0 0 0 0 0 0 0 0 0 0 0 0 0 0 0 0 0 0 .4 0"/><feOffset dx="4.0" dy="4.0" in="blurOut2" result="blurOut3"/><feBlend in="SourceGraphic" in2="blurOut3" mode="normal"/></filter></defs><g><rect fill="#DDDDDD" height="1398" style="stroke:#181818;stroke-width:0.5;" width="221.7686" x="303.1868" y="6"/><text fill="#000000" font-family="sans-serif" font-size="13" font-weight="bold" lengthAdjust="spacing" textLength="33.1538" x="397.4941" y="18.0669">UEFI</text><rect fill="#DDDDDD" height="1398" style="stroke:#181818;stroke-width:0.5;" width="219.502" x="536.9553" y="6"/><text fill="#000000" font-family="sans-serif" font-size="13" font-weight="bold" lengthAdjust="spacing" textLength="107.3071" x="593.0527" y="18.0669">Capsule image</text><line style="stroke:#181818;stroke-width:0.5;stroke-dasharray:5.0,5.0;" x1="103.1384" x2="103.1384" y1="60.4297" y2="1362.7031"/><rect fill="#FFFFFF" height="252.1953" style="stroke:#181818;stroke-width:1.0;" width="10" x="98.1384" y="68.4297"/><line style="stroke:#181818;stroke-width:0.5;stroke-dasharray:5.0,5.0;" x1="208.3103" x2="208.3103" y1="60.4297" y2="1362.7031"/><rect fill="#FFFFFF" height="385.8594" style="stroke:#181818;stroke-width:1.0;" width="10" x="203.3103" y="320.625"/><line style="stroke:#181818;stroke-width:0.5;stroke-dasharray:5.0,5.0;" x1="324.8953" x2="324.8953" y1="60.4297" y2="1362.7031"/><rect fill="#FFFFFF" height="108.5313" style="stroke:#181818;stroke-width:1.0;" width="10" x="319.8953" y="706.4844"/><line style="stroke:#181818;stroke-width:0.5;stroke-dasharray:5.0,5.0;" x1="406.2825" x2="406.2825" y1="60.4297" y2="1362.7031"/><rect fill="#FFFFFF" height="515.6875" style="stroke:#181818;stroke-width:1.0;" width="10" x="401.2825" y="815.0156"/><line style="stroke:#181818;stroke-width:0.5;stroke-dasharray:5.0,5.0;" x1="479.4231" x2="479.4231" y1="60.4297" y2="1362.7031"/><line style="stroke:#181818;stroke-width:0.5;stroke-dasharray:5.0,5.0;" x1="562.2424" x2="562.2424" y1="1042.0781" y2="1362.7031"/><rect fill="#FFFFFF" height="143.6641" style="stroke:#181818;stroke-width:1.0;" width="10" x="557.2424" y="1157.9063"/><line style="stroke:#181818;stroke-width:0.5;stroke-dasharray:5.0,5.0;" x1="626.0173" x2="626.0173" y1="60.4297" y2="1362.7031"/><line style="stroke:#181818;stroke-width:0.5;stroke-dasharray:5.0,5.0;" x1="710.4812" x2="710.4812" y1="1042.0781" y2="1362.7031"/><line style="stroke:#181818;stroke-width:0.5;stroke-dasharray:5.0,5.0;" x1="797.1492" x2="797.1492" y1="60.4297" y2="1362.7031"/><rect fill="#E2E2F0" height="30.2969" rx="2.5" ry="2.5" style="stroke:#181818;stroke-width:0.5;" width="83.877" x="61.2" y="29.1328"/><text fill="#000000" font-family="sans-serif" font-size="14" lengthAdjust="spacing" textLength="69.877" x="68.2" y="49.1279">UEFI Shell</text><rect fill="#E2E2F0" height="30.2969" rx="2.5" ry="2.5" style="stroke:#181818;stroke-width:0.5;" width="76.1387" x="170.241" y="29.1328"/><text fill="#000000" font-family="sans-serif" font-size="14" lengthAdjust="spacing" textLength="62.1387" x="177.241" y="49.1279">coreboot</text><rect fill="#E2E2F0" height="30.2969" rx="2.5" ry="2.5" style="stroke:#181818;stroke-width:0.5;" width="35.417" x="307.1868" y="29.1328"/><text fill="#000000" font-family="sans-serif" font-size="14" lengthAdjust="spacing" textLength="21.417" x="314.1868" y="49.1279">PEI</text><rect fill="#E2E2F0" height="30.2969" rx="2.5" ry="2.5" style="stroke:#181818;stroke-width:0.5;" width="43.2168" x="384.6741" y="29.1328"/><text fill="#000000" font-family="sans-serif" font-size="14" lengthAdjust="spacing" textLength="29.2168" x="391.6741" y="49.1279">DXE</text><rect fill="#E2E2F0" height="30.2969" style="stroke:#181818;stroke-width:0.5;" width="79.0645" x="441.8909" y="25.1328"/><rect fill="#E2E2F0" height="30.2969" style="stroke:#181818;stroke-width:0.5;" width="79.0645" x="437.8909" y="29.1328"/><text fill="#000000" font-family="sans-serif" font-size="14" lengthAdjust="spacing" textLength="65.0645" x="444.8909" y="49.1279">Variables</text><rect fill="#E2E2F0" height="30.2969" rx="2.5" ry="2.5" style="stroke:#181818;stroke-width:0.5;" width="64.9756" x="593.5295" y="29.1328"/><text fill="#000000" font-family="sans-serif" font-size="14" lengthAdjust="spacing" textLength="50.9756" x="600.5295" y="49.1279">Header</text><rect fill="#E2E2F0" height="30.2969" style="stroke:#181818;stroke-width:0.5;" width="45.3838" x="776.4573" y="25.1328"/><rect fill="#E2E2F0" height="30.2969" style="stroke:#181818;stroke-width:0.5;" width="45.3838" x="772.4573" y="29.1328"/><text fill="#000000" font-family="sans-serif" font-size="14" lengthAdjust="spacing" textLength="31.3838" x="779.4573" y="49.1279">RAM</text><rect fill="#E2E2F0" height="30.2969" rx="2.5" ry="2.5" style="stroke:#181818;stroke-width:0.5;" width="83.877" x="61.2" y="1362.7031"/><text fill="#000000" font-family="sans-serif" font-size="14" lengthAdjust="spacing" textLength="69.877" x="68.2" y="1382.6982">UEFI Shell</text><rect fill="#E2E2F0" height="30.2969" rx="2.5" ry="2.5" style="stroke:#181818;stroke-width:0.5;" width="76.1387" x="170.241" y="1362.7031"/><text fill="#000000" font-family="sans-serif" font-size="14" lengthAdjust="spacing" textLength="62.1387" x="177.241" y="1382.6982">coreboot</text><rect fill="#E2E2F0" height="30.2969" rx="2.5" ry="2.5" style="stroke:#181818;stroke-width:0.5;" width="35.417" x="307.1868" y="1362.7031"/><text fill="#000000" font-family="sans-serif" font-size="14" lengthAdjust="spacing" textLength="21.417" x="314.1868" y="1382.6982">PEI</text><rect fill="#E2E2F0" height="30.2969" rx="2.5" ry="2.5" style="stroke:#181818;stroke-width:0.5;" width="43.2168" x="384.6741" y="1362.7031"/><text fill="#000000" font-family="sans-serif" font-size="14" lengthAdjust="spacing" textLength="29.2168" x="391.6741" y="1382.6982">DXE</text><rect fill="#E2E2F0" height="30.2969" style="stroke:#181818;stroke-width:0.5;" width="79.0645" x="441.8909" y="1362.7031"/><rect fill="#E2E2F0" height="30.2969" style="stroke:#181818;stroke-width:0.5;" width="79.0645" x="437.8909" y="1366.7031"/><text fill="#000000" font-family="sans-serif" font-size="14" lengthAdjust="spacing" textLength="65.0645" x="444.8909" y="1386.6982">Variables</text><rect fill="#E2E2F0" height="30.2969" rx="2.5" ry="2.5" style="stroke:#181818;stroke-width:0.5;" width="42.5742" x="540.9553" y="1362.7031"/><text fill="#000000" font-family="sans-serif" font-size="14" lengthAdjust="spacing" textLength="28.5742" x="547.9553" y="1382.6982">FMP</text><rect fill="#E2E2F0" height="30.2969" rx="2.5" ry="2.5" style="stroke:#181818;stroke-width:0.5;" width="64.9756" x="593.5295" y="1362.7031"/><text fill="#000000" font-family="sans-serif" font-size="14" lengthAdjust="spacing" textLength="50.9756" x="600.5295" y="1382.6982">Header</text><rect fill="#E2E2F0" height="30.2969" rx="2.5" ry="2.5" style="stroke:#181818;stroke-width:0.5;" width="83.9521" x="668.5051" y="1362.7031"/><text fill="#000000" font-family="sans-serif" font-size="14" lengthAdjust="spacing" textLength="69.9521" x="675.5051" y="1382.6982">FW image</text><rect fill="#E2E2F0" height="30.2969" style="stroke:#181818;stroke-width:0.5;" width="45.3838" x="776.4573" y="1362.7031"/><rect fill="#E2E2F0" height="30.2969" style="stroke:#181818;stroke-width:0.5;" width="45.3838" x="772.4573" y="1366.7031"/><text fill="#000000" font-family="sans-serif" font-size="14" lengthAdjust="spacing" textLength="31.3838" x="779.4573" y="1386.6982">RAM</text><polygon fill="#CCEEFF" filter="url(#fchgmy9re0hcl)" points="701.0293,73.4297,893.0293,73.4297,903.0293,99.4297,893.0293,126.4297,701.0293,126.4297,691.0293,99.4297,701.0293,73.4297" style="stroke:#181818;stroke-width:0.5;"/><text fill="#000000" font-family="sans-serif" font-size="13" lengthAdjust="spacing" textLength="160.3101" x="716.9941" y="89.4966">Represents data in RAM,</text><text fill="#000000" font-family="sans-serif" font-size="13" lengthAdjust="spacing" textLength="188.2397" x="703.0293" y="104.6294">such as UEFI HOBs, coreboot</text><text fill="#000000" font-family="sans-serif" font-size="13" lengthAdjust="spacing" textLength="172.1929" x="711.0527" y="119.7622">CBMEM and system tables</text><path d="M8,135.8281 L77.4512,135.8281 L77.4512,142.9609 L67.4512,152.9609 L8,152.9609 L8,135.8281 " fill="#EEEEEE" style="stroke:#000000;stroke-width:1.5;"/><rect fill="none" height="149.6641" style="stroke:#000000;stroke-width:1.5;" width="805.1492" x="8" y="135.8281"/><text fill="#000000" font-family="sans-serif" font-size="13" font-weight="bold" lengthAdjust="spacing" textLength="24.4512" x="23" y="148.895">opt</text><path d="M29,167.9609 L29,192.9609 L177,192.9609 L177,177.9609 L167,167.9609 L29,167.9609 " fill="#FEFFDD" style="stroke:#181818;stroke-width:0.5;"/><path d="M167,167.9609 L167,177.9609 L177,177.9609 L167,167.9609 " fill="#FEFFDD" style="stroke:#181818;stroke-width:0.5;"/><text fill="#000000" font-family="sans-serif" font-size="13" lengthAdjust="spacing" textLength="127.2769" x="35" y="185.0278">Run CapsuleApp.efi</text><polygon fill="#181818" points="119.1384,215.2266,109.1384,219.2266,119.1384,223.2266,115.1384,219.2266" style="stroke:#181818;stroke-width:1.0;"/><line style="stroke:#181818;stroke-width:1.0;stroke-dasharray:2.0,2.0;" x1="113.1384" x2="625.0173" y1="219.2266" y2="219.2266"/><text fill="#000000" font-family="sans-serif" font-size="13" lengthAdjust="spacing" textLength="217.0073" x="125.1384" y="214.1606">Load and validate Capsule image</text><polygon fill="#181818" points="785.1492,244.3594,795.1492,248.3594,785.1492,252.3594,789.1492,248.3594" style="stroke:#181818;stroke-width:1.0;"/><line style="stroke:#181818;stroke-width:1.0;stroke-dasharray:2.0,2.0;" x1="108.1384" x2="791.1492" y1="248.3594" y2="248.3594"/><text fill="#000000" font-family="sans-serif" font-size="13" lengthAdjust="spacing" textLength="317.5796" x="115.1384" y="243.2935">Store (possibly scattered) Capsule image in RAM</text><polygon fill="#181818" points="467.4231,273.4922,477.4231,277.4922,467.4231,281.4922,471.4231,277.4922" style="stroke:#181818;stroke-width:1.0;"/><line style="stroke:#181818;stroke-width:1.0;stroke-dasharray:2.0,2.0;" x1="108.1384" x2="473.4231" y1="277.4922" y2="277.4922"/><text fill="#000000" font-family="sans-serif" font-size="13" lengthAdjust="spacing" textLength="215.7632" x="115.1384" y="272.4263">Save information about Capsules</text><polygon fill="#181818" points="191.3103,316.625,201.3103,320.625,191.3103,324.625,195.3103,320.625" style="stroke:#181818;stroke-width:1.0;"/><line style="stroke:#181818;stroke-width:1.0;" x1="108.1384" x2="197.3103" y1="320.625" y2="320.625"/><text fill="#000000" font-family="sans-serif" font-size="13" lengthAdjust="spacing" textLength="76.1719" x="115.1384" y="315.5591">Warm reset</text><polygon fill="#181818" points="224.3103,345.7578,214.3103,349.7578,224.3103,353.7578,220.3103,349.7578" style="stroke:#181818;stroke-width:1.0;"/><line style="stroke:#181818;stroke-width:1.0;stroke-dasharray:2.0,2.0;" x1="218.3103" x2="478.4231" y1="349.7578" y2="349.7578"/><text fill="#000000" font-family="sans-serif" font-size="13" lengthAdjust="spacing" textLength="181.9302" x="230.3103" y="344.6919">Check for Capsule presence</text><path d="M147.4651,361.7578 L216.9163,361.7578 L216.9163,368.8906 L206.9163,378.8906 L147.4651,378.8906 L147.4651,361.7578 " fill="#EEEEEE" style="stroke:#000000;stroke-width:1.5;"/><rect fill="none" height="164.7969" style="stroke:#000000;stroke-width:1.5;" width="665.6841" x="147.4651" y="361.7578"/><text fill="#000000" font-family="sans-serif" font-size="13" font-weight="bold" lengthAdjust="spacing" textLength="24.4512" x="162.4651" y="374.8247">opt</text><polygon fill="#181818" points="224.3103,406.0234,214.3103,410.0234,224.3103,414.0234,220.3103,410.0234" style="stroke:#181818;stroke-width:1.0;"/><line style="stroke:#181818;stroke-width:1.0;stroke-dasharray:2.0,2.0;" x1="218.3103" x2="796.1492" y1="410.0234" y2="410.0234"/><text fill="#000000" font-family="sans-serif" font-size="13" lengthAdjust="spacing" textLength="229.8232" x="230.3103" y="404.9575">Read scattered Capsules from RAM</text><path d="M168.4651,423.0234 L168.4651,463.0234 L247.4651,463.0234 L247.4651,433.0234 L237.4651,423.0234 L168.4651,423.0234 " fill="#FEFFDD" style="stroke:#181818;stroke-width:0.5;"/><path d="M237.4651,423.0234 L237.4651,433.0234 L247.4651,433.0234 L237.4651,423.0234 " fill="#FEFFDD" style="stroke:#181818;stroke-width:0.5;"/><text fill="#000000" font-family="sans-serif" font-size="13" lengthAdjust="spacing" textLength="58.5254" x="174.4651" y="440.0903">Coalesce</text><text fill="#000000" font-family="sans-serif" font-size="13" lengthAdjust="spacing" textLength="58.6904" x="174.4651" y="455.2231">Capsules</text><polygon fill="#181818" points="785.1492,485.4219,795.1492,489.4219,785.1492,493.4219,789.1492,489.4219" style="stroke:#181818;stroke-width:1.0;"/><line style="stroke:#181818;stroke-width:1.0;stroke-dasharray:2.0,2.0;" x1="213.3103" x2="791.1492" y1="489.4219" y2="489.4219"/><text fill="#000000" font-family="sans-serif" font-size="13" lengthAdjust="spacing" textLength="217.166" x="220.3103" y="484.356">Write coalesced Capsules to RAM</text><polygon fill="#181818" points="785.1492,514.5547,795.1492,518.5547,785.1492,522.5547,789.1492,518.5547" style="stroke:#181818;stroke-width:1.0;"/><line style="stroke:#181818;stroke-width:1.0;stroke-dasharray:2.0,2.0;" x1="213.3103" x2="791.1492" y1="518.5547" y2="518.5547"/><text fill="#000000" font-family="sans-serif" font-size="13" lengthAdjust="spacing" textLength="226.7065" x="220.3103" y="513.4888">Create a CBMEM entry per capsule</text><path d="M159.2673,545.5547 L159.2673,585.5547 L257.2673,585.5547 L257.2673,555.5547 L247.2673,545.5547 L159.2673,545.5547 " fill="#FEFFDD" style="stroke:#181818;stroke-width:0.5;"/><path d="M247.2673,545.5547 L247.2673,555.5547 L257.2673,555.5547 L247.2673,545.5547 " fill="#FEFFDD" style="stroke:#181818;stroke-width:0.5;"/><text fill="#000000" font-family="sans-serif" font-size="13" lengthAdjust="spacing" textLength="63.2925" x="165.2673" y="562.6216">Configure</text><text fill="#000000" font-family="sans-serif" font-size="13" lengthAdjust="spacing" textLength="77.0859" x="165.2673" y="577.7544">SMI handler</text><path d="M172.4419,595.8203 L172.4419,650.8203 L243.4419,650.8203 L243.4419,605.8203 L233.4419,595.8203 L172.4419,595.8203 " fill="#FEFFDD" style="stroke:#181818;stroke-width:0.5;"/><path d="M233.4419,595.8203 L233.4419,605.8203 L243.4419,605.8203 L233.4419,595.8203 " fill="#FEFFDD" style="stroke:#181818;stroke-width:0.5;"/><text fill="#000000" font-family="sans-serif" font-size="13" lengthAdjust="spacing" textLength="43.3989" x="178.4419" y="612.8872">Obtain</text><text fill="#000000" font-family="sans-serif" font-size="13" lengthAdjust="spacing" textLength="47.6138" x="178.4419" y="628.02">version</text><text fill="#000000" font-family="sans-serif" font-size="13" lengthAdjust="spacing" textLength="50.7368" x="178.4419" y="643.1528">number</text><polygon fill="#181818" points="785.1492,673.3516,795.1492,677.3516,785.1492,681.3516,789.1492,677.3516" style="stroke:#181818;stroke-width:1.0;"/><line style="stroke:#181818;stroke-width:1.0;stroke-dasharray:2.0,2.0;" x1="213.3103" x2="791.1492" y1="677.3516" y2="677.3516"/><text fill="#000000" font-family="sans-serif" font-size="13" lengthAdjust="spacing" textLength="186.5068" x="220.3103" y="672.2856">Create version CBMEM entry</text><polygon fill="#181818" points="307.8953,702.4844,317.8953,706.4844,307.8953,710.4844,311.8953,706.4844" style="stroke:#181818;stroke-width:1.0;"/><line style="stroke:#181818;stroke-width:1.0;" x1="213.3103" x2="313.8953" y1="706.4844" y2="706.4844"/><text fill="#000000" font-family="sans-serif" font-size="13" lengthAdjust="spacing" textLength="87.585" x="220.3103" y="701.4185">Start payload</text><polygon fill="#181818" points="340.8953,731.6172,330.8953,735.6172,340.8953,739.6172,336.8953,735.6172" style="stroke:#181818;stroke-width:1.0;"/><line style="stroke:#181818;stroke-width:1.0;stroke-dasharray:2.0,2.0;" x1="334.8953" x2="796.1492" y1="735.6172" y2="735.6172"/><text fill="#000000" font-family="sans-serif" font-size="13" lengthAdjust="spacing" textLength="209.3267" x="346.8953" y="730.5513">Check for Capsule CBMEM entry</text><path d="M279.2673,748.6172 L279.2673,788.6172 L370.2673,788.6172 L370.2673,758.6172 L360.2673,748.6172 L279.2673,748.6172 " fill="#FEFFDD" style="stroke:#181818;stroke-width:0.5;"/><path d="M360.2673,748.6172 L360.2673,758.6172 L370.2673,758.6172 L360.2673,748.6172 " fill="#FEFFDD" style="stroke:#181818;stroke-width:0.5;"/><text fill="#000000" font-family="sans-serif" font-size="13" lengthAdjust="spacing" textLength="68.6245" x="285.2673" y="765.6841">Set proper</text><text fill="#000000" font-family="sans-serif" font-size="13" lengthAdjust="spacing" textLength="70.2559" x="285.2673" y="780.8169">boot mode</text><polygon fill="#181818" points="389.2825,811.0156,399.2825,815.0156,389.2825,819.0156,393.2825,815.0156" style="stroke:#181818;stroke-width:1.0;"/><line style="stroke:#181818;stroke-width:1.0;" x1="329.8953" x2="395.2825" y1="815.0156" y2="815.0156"/><text fill="#000000" font-family="sans-serif" font-size="13" lengthAdjust="spacing" textLength="52.3872" x="336.8953" y="809.9497">Execute</text><polygon fill="#181818" points="422.2825,840.1484,412.2825,844.1484,422.2825,848.1484,418.2825,844.1484" style="stroke:#181818;stroke-width:1.0;"/><line style="stroke:#181818;stroke-width:1.0;stroke-dasharray:2.0,2.0;" x1="416.2825" x2="796.1492" y1="844.1484" y2="844.1484"/><text fill="#000000" font-family="sans-serif" font-size="13" lengthAdjust="spacing" textLength="176.2744" x="428.2825" y="839.0825">Read version CBMEM entry</text><path d="M355.1956,857.1484 L355.1956,897.1484 L457.1956,897.1484 L457.1956,867.1484 L447.1956,857.1484 L355.1956,857.1484 " fill="#FEFFDD" style="stroke:#181818;stroke-width:0.5;"/><path d="M447.1956,857.1484 L447.1956,867.1484 L457.1956,867.1484 L447.1956,857.1484 " fill="#FEFFDD" style="stroke:#181818;stroke-width:0.5;"/><text fill="#000000" font-family="sans-serif" font-size="13" lengthAdjust="spacing" textLength="68.5864" x="361.1956" y="874.2153">Convert to</text><text fill="#000000" font-family="sans-serif" font-size="13" lengthAdjust="spacing" textLength="81.1738" x="361.1956" y="889.3481">ESRT format</text><polygon fill="#181818" points="785.1492,919.5469,795.1492,923.5469,785.1492,927.5469,789.1492,923.5469" style="stroke:#181818;stroke-width:1.0;"/><line style="stroke:#181818;stroke-width:1.0;stroke-dasharray:2.0,2.0;" x1="411.2825" x2="791.1492" y1="923.5469" y2="923.5469"/><text fill="#000000" font-family="sans-serif" font-size="13" lengthAdjust="spacing" textLength="110.9824" x="418.2825" y="918.481">Write ESRT entry</text><path d="M360.6545,936.5469 L360.6545,976.5469 L451.6545,976.5469 L451.6545,946.5469 L441.6545,936.5469 L360.6545,936.5469 " fill="#FEFFDD" style="stroke:#181818;stroke-width:0.5;"/><path d="M441.6545,936.5469 L441.6545,946.5469 L451.6545,946.5469 L441.6545,936.5469 " fill="#FEFFDD" style="stroke:#181818;stroke-width:0.5;"/><text fill="#000000" font-family="sans-serif" font-size="13" lengthAdjust="spacing" textLength="39.9902" x="366.6545" y="953.6138">Check</text><text fill="#000000" font-family="sans-serif" font-size="13" lengthAdjust="spacing" textLength="70.2559" x="366.6545" y="968.7466">boot mode</text><path d="M192.3103,985.8125 L261.7615,985.8125 L261.7615,992.9453 L251.7615,1002.9453 L192.3103,1002.9453 L192.3103,985.8125 " fill="#EEEEEE" style="stroke:#000000;stroke-width:1.5;"/><rect fill="none" height="352.8906" style="stroke:#000000;stroke-width:1.5;" width="620.8389" x="192.3103" y="985.8125"/><text fill="#000000" font-family="sans-serif" font-size="13" font-weight="bold" lengthAdjust="spacing" textLength="24.4512" x="207.3103" y="998.8794">opt</text><polygon fill="#181818" points="422.2825,1030.0781,412.2825,1034.0781,422.2825,1038.0781,418.2825,1034.0781" style="stroke:#181818;stroke-width:1.0;"/><line style="stroke:#181818;stroke-width:1.0;stroke-dasharray:2.0,2.0;" x1="416.2825" x2="625.0173" y1="1034.0781" y2="1034.0781"/><text fill="#000000" font-family="sans-serif" font-size="13" lengthAdjust="spacing" textLength="53.3965" x="428.2825" y="1029.0122">Validate</text><rect fill="#E2E2F0" height="30.2969" rx="2.5" ry="2.5" style="stroke:#181818;stroke-width:0.5;" width="42.5742" x="540.9553" y="1042.0781"/><text fill="#000000" font-family="sans-serif" font-size="14" lengthAdjust="spacing" textLength="28.5742" x="547.9553" y="1062.0732">FMP</text><rect fill="#E2E2F0" height="30.2969" rx="2.5" ry="2.5" style="stroke:#181818;stroke-width:0.5;" width="83.9521" x="668.5051" y="1042.0781"/><text fill="#000000" font-family="sans-serif" font-size="14" lengthAdjust="spacing" textLength="69.9521" x="675.5051" y="1062.0732">FW image</text><polygon fill="#CCEEFF" filter="url(#fchgmy9re0hcl)" points="495.9597,1078.375,627.9597,1078.375,637.9597,1104.375,627.9597,1131.375,495.9597,1131.375,485.9597,1104.375,495.9597,1078.375" style="stroke:#181818;stroke-width:0.5;"/><text fill="#000000" font-family="sans-serif" font-size="13" lengthAdjust="spacing" textLength="109.8081" x="507.3384" y="1094.4419">FMP may also be</text><text fill="#000000" font-family="sans-serif" font-size="13" lengthAdjust="spacing" textLength="128.5654" x="497.9597" y="1109.5747">part of UEFI instead</text><text fill="#000000" font-family="sans-serif" font-size="13" lengthAdjust="spacing" textLength="113.2041" x="505.6404" y="1124.7075">of Capsule image</text><polygon fill="#181818" points="545.2424,1153.9063,555.2424,1157.9063,545.2424,1161.9063,549.2424,1157.9063" style="stroke:#181818;stroke-width:1.0;"/><line style="stroke:#181818;stroke-width:1.0;" x1="411.2825" x2="551.2424" y1="1157.9063" y2="1157.9063"/><text fill="#000000" font-family="sans-serif" font-size="13" lengthAdjust="spacing" textLength="52.3872" x="418.2825" y="1152.8403">Execute</text><polygon fill="#181818" points="578.2424,1183.0391,568.2424,1187.0391,578.2424,1191.0391,574.2424,1187.0391" style="stroke:#181818;stroke-width:1.0;"/><line style="stroke:#181818;stroke-width:1.0;stroke-dasharray:2.0,2.0;" x1="572.2424" x2="796.1492" y1="1187.0391" y2="1187.0391"/><text fill="#000000" font-family="sans-serif" font-size="13" lengthAdjust="spacing" textLength="157.2378" x="584.2424" y="1181.9731">Read version from ESRT</text><path d="M425.241,1170.9063 L425.241,1195.9063 L557.241,1195.9063 L557.241,1180.9063 L547.241,1170.9063 L425.241,1170.9063 " fill="#FEFFDD" style="stroke:#181818;stroke-width:0.5;"/><path d="M547.241,1170.9063 L547.241,1180.9063 L557.241,1180.9063 L547.241,1170.9063 " fill="#FEFFDD" style="stroke:#181818;stroke-width:0.5;"/><text fill="#000000" font-family="sans-serif" font-size="13" lengthAdjust="spacing" textLength="111.0015" x="431.241" y="1187.9731">Compare version</text><polygon fill="#181818" points="578.2424,1218.1719,568.2424,1222.1719,578.2424,1226.1719,574.2424,1222.1719" style="stroke:#181818;stroke-width:1.0;"/><line style="stroke:#181818;stroke-width:1.0;stroke-dasharray:2.0,2.0;" x1="572.2424" x2="709.4812" y1="1222.1719" y2="1222.1719"/><text fill="#000000" font-family="sans-serif" font-size="13" lengthAdjust="spacing" textLength="118.168" x="584.2424" y="1217.106">Read and validate</text><polygon fill="#181818" points="219.3103,1247.3047,209.3103,1251.3047,219.3103,1255.3047,215.3103,1251.3047" style="stroke:#181818;stroke-width:1.0;"/><polygon fill="#181818" points="545.2424,1247.3047,555.2424,1251.3047,545.2424,1255.3047,549.2424,1251.3047" style="stroke:#181818;stroke-width:1.0;"/><line style="stroke:#181818;stroke-width:1.0;" x1="213.3103" x2="551.2424" y1="1251.3047" y2="1251.3047"/><text fill="#000000" font-family="sans-serif" font-size="13" lengthAdjust="spacing" textLength="156.5903" x="225.3103" y="1246.2388">SMI call(s) and return(s)</text><path d="M572.2424,1235.1719 L572.2424,1275.1719 L685.2424,1275.1719 L685.2424,1245.1719 L675.2424,1235.1719 L572.2424,1235.1719 " fill="#FEFFDD" style="stroke:#181818;stroke-width:0.5;"/><path d="M675.2424,1235.1719 L675.2424,1245.1719 L685.2424,1245.1719 L675.2424,1235.1719 " fill="#FEFFDD" style="stroke:#181818;stroke-width:0.5;"/><text fill="#000000" font-family="sans-serif" font-size="13" lengthAdjust="spacing" textLength="59.3696" x="578.2424" y="1252.2388">Write FW</text><text fill="#000000" font-family="sans-serif" font-size="13" lengthAdjust="spacing" textLength="92.9741" x="578.2424" y="1267.3716">image to flash</text><polygon fill="#181818" points="422.2825,1297.5703,412.2825,1301.5703,422.2825,1305.5703,418.2825,1301.5703" style="stroke:#181818;stroke-width:1.0;"/><line style="stroke:#181818;stroke-width:1.0;" x1="416.2825" x2="556.2424" y1="1301.5703" y2="1301.5703"/><text fill="#000000" font-family="sans-serif" font-size="13" lengthAdjust="spacing" textLength="43.9512" x="428.2825" y="1296.5044">Return</text><polygon fill="#181818" points="219.3103,1326.7031,209.3103,1330.7031,219.3103,1334.7031,215.3103,1330.7031" style="stroke:#181818;stroke-width:1.0;"/><line style="stroke:#181818;stroke-width:1.0;" x1="213.3103" x2="400.2825" y1="1330.7031" y2="1330.7031"/><text fill="#000000" font-family="sans-serif" font-size="13" lengthAdjust="spacing" textLength="66.2378" x="225.3103" y="1325.6372">Cold reset</text><!--SRC=[TLHTRzim37pNh-0oO6ZHPjZBNeeYG9ibQ85r6Pgk7R0C0sFBiL1PCYGvRVRhHygEFxBqpPPun-DHvBlIuQP02DB-XU0gAOH_LgP4XmNu75Fxeipcyl95XVnF_J-Pr85Tt3SRv8Dy3LTQRKmXJJYCJ-XCkWF4DIRF6sShaqwjjkuGytuwcmj1uK4bgaGJOFHZDh-5PIwr7W5wM2m59a5jCKZ-xeScricrjK6ixIimR73xVJRy__9p9XAhjIGsQpmyebEurj9pbYqwBwH9WQW6KVTNTtoVOa2mBfKEFdyI8ZTK6jWj_VBDGLNYNfPEUhAZ0Ih3FEV2LqdERB74cyMrF-zgc5xVpIWLIV0x7sG18OgBec8w8MmPH9TuiRo0-yh054jVQNbLbXzbfiHY2PVZCTn89B4NyDLY6bctg5NA9ZRne0hSI17rCO3fbe7Km4bflLThlGEVOA2MolHqY6eA4knQ1yOjNsJM5SZU0Qvj5VR0kX2kW1ME9stXC1wVdLt04xe2s3GAQA-OcdDSm3INoJCGTokaTZXfR1b0k2RoXXpeAcXrGEPi4TLtLkxHbCSYnIHoPLhThKDTr9DJ14sQs1vti97v26Jg99kFKFUPteRRGScvQsndpt5P9bERof6kvTqjvDHGJQDsB7In3gZCoj2ffowiZAcADSM-hQc9x2lhzO1QHPFKT6aPQA2Wn9scPoK4NtI6_z-ZFcEdbL3498d7MN9WPMAUmgQoPgICDAjDnjchJ2f-_7nqqDnZmhiq18Z6qNUWngpCR7d_0FNpxDo8KNK_u_rn5gvie9CxjLUq7xN7Pi94t4UZmSICH5ARtTz8yxllKSZuLwxIL9hVumaVzTTFpNqCF9e_DTIyKR8NyG4EkEXilz7w2ujI7EuhEe82Tu3QMrZBk3R1PlMUKeRM4NMR_eUhexUPOhycJ0s3fl716qsBOyYMrsPhcSLtNb3kzacs-EobGVStMNCxwRre7eu4jJxnfp7KoL0vGtzr4gSsUJk-ywULgRSPJMscqUUrtlRvSKg6j-NrLXPBrMcpi9hH_GS0]--></g></svg>
