<?xml version="1.0" encoding="utf-8"?>
<svg version="1.1" id="Layer_1" xmlns="http://www.w3.org/2000/svg" xmlns:xlink="http://www.w3.org/1999/xlink" x="0px" y="0px"
	 viewBox="0 0 1532.432 1664.842" enable-background="new 0 0 1532.432 1664.842" xml:space="preserve">
<path d="M1481.86,783.485c-8.876-6.145-25.088-6.049-32.31,7.721c-67.688,0.075-135.384,0.15-203.071-0.042
	c-0.234-3.027,0.1-6.07-0.217-9.08l0.475-0.242c-13.633-0.292-27.282,0-40.914-0.15c0.042-44.116-0.125-88.241,0.092-132.357
	c-37.546,0.258-75.1,0.092-112.646,0.083c0.126-5.279,0.013-28.958,0.058-41.039c-2.217-0.164-1.314-0.193-4.169,0.25
	c-0.125-75.767-0.083-151.542-0.025-227.31c16.559-0.21,225.547-0.142,226.551-0.142c-0.033,0.559-0.1,1.693-0.134,2.251
	c0.033-0.242,0.1-0.742,0.134-0.992l1.051,0.125c0.85,6.462,5.761,11.773,11.498,14.516c3.952,1.809,8.421,1.167,12.649,1.251
	c14.42,0.859,24.816-21.644,13.341-36.545c-8.471-11.273-28.758-10.723-35.612,2.026c-0.233,0.15-0.7,0.442-0.934,0.592
	c-21.869-0.174-214.463-0.15-241.234-0.033c0.167,0.367,0.5,1.092,0.667,1.451c0.056,24.658,0.158,212.987-0.083,242.185
	c-0.325,0.117-0.976,0.358-1.301,0.475c-10.547-0.208-21.103-0.167-31.642-0.017l1.084,1.026c0.208,12.824-0.017,25.664,0.1,38.496
	c-0.242,0.392-0.734,1.176-0.976,1.568c-16.351-0.425-32.718,0.008-49.077-0.217c0.008-13.674,0.083-27.349-0.025-41.023
	c-4.31,0.144-7.755-0.114-11.807,0.142c0-412.738-0.036-388.373,0.208-396.287c5.698-0.051,148.502-0.28,181.893,0.167
	c0.188-1.886-0.325-112.929-0.325-112.929c2.777-1.626,5.837-2.927,8.038-5.361c8.738-9.263,8.179-25.781-1.468-34.211
	c-9.364-7.804-26.056-6.637-32.435,4.444c-3.541,5.902-4.561,15.899-1.267,23.321c4.089,8.124,8.637,9.194,10.998,10.964
	c1.609,0.233,3.777,0.233,4.511,2.043c0.033,32.36,0.025,64.719,0.008,97.079c-0.167,0.442-0.492,1.318-0.659,1.759
	c-6.77-0.339-182.164-0.173-186.479-0.042c0.283,0.383,0.85,1.159,1.134,1.542c0.022,1,0.13,374.075,0.025,405.258
	c-0.342,0.81-0.659,1.635-0.959,2.469l-0.208,0.033c-6.529-0.759-13.157-0.15-19.728-0.325c0.529,2.624,0.345,1.105,0.375,40.397
	c-0.242,0.192-0.742,0.592-0.992,0.784c-16.317-0.409-32.66-0.083-48.985-0.159c0.5-13.649-0.017-27.332,0.259-40.989
	c-1-0.064-16.018-0.076-19.761-0.017c0.168-48.905,0.122-486.402,0.092-535.314c11.415-9.288,10.281-30.008-2.543-37.613
	c-8.922-5.044-22.146-4.044-28.483,4.628c-2.312,3.142-3.752,7.229-3.752,7.229c-3.641,17.021,5.986,29.458,18.085,29.758
	c1.688,3.093,0.349,211.171,0.942,320.745h-0.951c0.075,69.922,0.1,139.853,0.033,209.783l0.35,0.258
	c-0.158,0.225-0.492,0.667-0.65,0.892l-0.425-0.308c-4.077-0.167-8.155-0.133-12.224,0l0.759,0.817
	c-0.334,13.407,0.325,26.857-0.334,40.231c-16.476-0.292-32.968-0.008-49.444-0.134c0.017-13.666,0.008-27.332,0-40.998
	c-8.529,0-10.789-0.103-14.208,0.1c-0.007-1.001-0.597-282.391,0.584-283.499c14.793-15.529,2.219-45.592-22.554-38.288
	c-15.885,3.241-21.893,33.036-0.875,42.899c0.5,0.058,1.501,0.175,2.001,0.233c2.551,1.459,5.828,0.567,8.68,0.792
	c0.41,47.108-0.173,274.618,0.492,276.237c-0.158,0.334-0.467,1.017-0.625,1.351c-0.525,0.113-18.39,0.098-22.688,0.375l1.092,1.117
	c0.042,12.765,0.017,25.531,0.025,38.296c-0.225,0.4-0.692,1.217-0.925,1.617c-16.192-0.5-32.426-0.083-48.635-0.208
	c-0.042-13.691-0.033-27.373-0.008-41.065c-3.884,0.122-14.173-0.061-22.487,0.075c0.142-60.225,0.042-120.458,0.058-180.692
	c-3.772,0.023-131.465,0.305-135.217-0.159c0.05-63.377,0.1-126.754-0.008-190.13l0.359-0.917c0.825-0.225,1.309-1.034,1.951-1.551
	l-0.033-0.242c15.782-19.161-5.999-48.922-29.858-34.061c-14.148,8.832-11.928,39.693,11.039,41.773
	c0.749,35.151-0.825,197.051,1.317,198.102c46.042-0.3,92.093,0.125,138.135-0.217c0.344,5.894,0.39,161.367-0.067,168.135
	l-0.45,0.167c-4.644-0.5-9.322-0.183-13.974-0.183l1.101,1.051c0.225,12.832-0.033,25.673,0.142,38.513
	c-0.275,0.392-0.826,1.176-1.101,1.559c-16.334-0.417-32.693,0.008-49.036-0.208c0.083-13.649,0-27.299,0.042-40.948
	c-3.18-0.054-9.716-0.126-12.64,0.1c-0.667-5.141-0.227-99.16-0.175-104.491c-3.745-0.545-153.713-0.238-158.588-0.092
	c-18.101-23.996-49.351-4.556-38.421,22.254c5.109,9.928,12.509,10.976,14.35,11.832c4.867,0.188,14.178,1.996,20.862-5.636
	c4.252-4.186,5.803-10.222,6.328-15.984c46.242-0.125,92.493-0.075,138.744-0.025c0.571,12.785-0.023,68.424,0.333,91.517
	c-0.317,0.175-0.942,0.525-1.259,0.692c-6.178-0.425-12.432-0.175-18.635-0.108l0.834,0.817c0.175,12.282,0.017,24.572,0.092,36.862
	c-0.1,1.201,0.3,2.802-1.134,3.352c-16.242-0.25-32.493-0.033-48.735-0.108c-0.167-13.708,0.292-27.449-0.217-41.14
	c-2.626,0.158-5.245,0.125-7.871,0.142c0.017-15.083-0.067-30.167,0.042-45.25c-3.279-0.466-216.145,0.022-274.411-0.308
	c-6.379-6.437-16.801-7.629-24.956-4.219c-10.7,4.54-13.948,19.346-9.956,29.925c6.22,15.957,22.021,13.034,25.731,12.899
	c8.666-3.269,15.104-8.515,15.792-21.07c0.158-0.158,0.484-0.475,0.65-0.634c22.845,0.171,222.126,0.2,250.839-0.025
	c0.035,1,0.763,27.716-0.725,28.933c-7.831,0-15.667-0.317-23.51-0.212c0.751,13.801,0.74,27.644-0.032,41.444
	c-20.091-1.83-40.786-0.455-60.93-0.493c0,0-0.009,1.051-0.009,1.051l0.85,0.734c-0.944,1.573-0.466,78.807-0.075,81.795
	c-0.425,0.825-0.809,1.693-1.326,2.485c-3.13-0.339-35.01-0.278-40.806-0.042l0.717,0.909c0.017,2.827,0.05,5.67-0.1,8.505
	c-5.011-0.481-236.394,0.256-247.279-0.417c-7.114-14.592-28.726-20.643-42.324-3.077c-4.369,8.158-2.254,6.499-3.769,9.822
	c-2.401,21.352,16.564,27.224,17.676,27.882c5.291,0.273,24.498,3.283,29.867-16.126c0.294-2.296-13.423-1.089,245.878-1.409
	c0.108,7.237,0.092,14.475,0.025,21.72c5.296,1.406,5.851,0.601,40.739,0.653c0.373,1.413,1.059,48.429,0.326,48.549
	c-5.603,0.916,2.484,0.508-41.59,0.625c0.8,5.369,0.368,10.651,0.459,16.784c-2.49,1.406,11.31,0.364-267.248,0.759
	c-6.037-10.656-20.778-15.725-31.743-9.914c-0.3,0.042-0.892,0.117-1.184,0.158l-0.325,0.4c-2.526,0.392-4.286,2.368-5.995,4.085
	c-14.36,13.433-5.404,40.241,14.174,42.332c16.008,1.39,25.665-8.352,28.266-20.128c87.59-0.175,175.181,0.008,262.771-0.092
	c0.25,0.092,0.742,0.267,0.992,0.359c0.509,4.644,0.117,9.347,0.183,14.024c3.675,0.984,18.119,0.241,40.481,0.55l0.417,0.484
	c0.151,4.013,0.291,42.409-0.208,48.752c-13.691-0.3-27.399-0.067-41.09-0.117l0.5,0.6c-0.392,3.836-0.142,7.704-0.125,11.556
	c-156.145,0.246-253.259-0.26-260.036,0.342c-1.543,2.893-3.694,5.411-5.912,7.804l-0.025,1.084l-0.725-0.6
	c-1.022,49.889,2.025,187.426-2.06,186.946c-23.085,1.758-25.175,35.302-6.003,43.299c3.233,1.412,15.599,3.509,23.905-3.819
	l0.05-0.425c7.779-7.613,8.413-20.878,2.626-29.842c-0.842-1.542-2.668-2.693-2.693-4.561
	c-0.028-202.892,1.081-182.194-2.485-187.162l0.292-0.509c3.715-0.774,154.449-0.045,253.074-0.467
	c0.3,8.13,0.108,16.276,0.117,24.414c13.566,0.067,27.14,0.075,40.706,0c0.108,23.905,0.117,47.818,0.033,71.732
	c25.056,0.275,50.12,0.125,75.175,0.075c-0.025,13.541,0.033,27.082-0.025,40.623c3.277-0.058,6.562-0.142,9.847-0.008
	c0.283,17.668,0.033,35.344,0.117,53.021c-0.059,166.158,1.877,137.626-5.52,148.791l0.767,0.267
	c-54.897-0.042-109.786,0.008-164.683-0.017c-6.014-13.111-16.426-15.375-30.45-11.698l-0.7,0.4v0.717
	c-3.777,0.825-6.003,4.569-7.913,7.646c-16.591,33.936,35.724,49.503,40.573,15.509c7.261-0.544,166.262-0.202,168.935-0.192
	c9.492-7.89,9.265-7.768,14.166-11.765l-0.017-0.058c1.64-1.171,1.383,12.603,1.167-202.638c7.412-0.317,14.867-0.258,22.287-0.033
	c0.4-13.491,0.117-27.007,0.133-40.514c2.633-0.602,0.141-0.239,49.803-0.359c0.108,12.732,0.008,25.464,0.042,38.205
	c0.167,0.525,0.484,1.576,0.642,2.109c1.359,0.133,3.377-0.867,4.136,0.784c0.002,1.004,0.288,451.814-0.875,454.094
	c-0.867,0.492-1.659,1.092-2.376,1.793c-0.033,0.058-0.083,0.158-0.108,0.208c-1.568,1.426-3.16,2.885-5.078,3.844
	c-43.199-0.242-86.406,0.133-129.597-0.183c-0.775-1.384-6.704-19.127-25.814-15.042c-22.53,0.163-24.745,47.345,6.754,45.067
	c2.109-0.292,4.561-0.208,6.187-1.809c6.645-1.495,11.371-8.704,13.057-15.367c0.301-0.002,136.228-0.104,136.518-0.183
	c1.626-1.579,13.123-9.77,16.659-11.973c1.472-1.12,0.902-459.589,0.9-460.589c9.163-0.275,18.352-0.267,27.515,0l-0.333-0.192
	c0.175-13.466,0.075-26.923,0.058-40.381c9.797-1.104,21.008,0.442,25.331-0.909c4.911,1.176,10.031,0.283,14.95,0.217
	c3.21,1.342,6.72-1.518,9.73,0.542c-0.075,13.074,0.067,26.156-0.075,39.23c1.703,0.248,3.476,0.195,5.192,0.202
	c1.036,0.004,2.087,0.039,3.118,0.015c0.791-0.019,1.581-0.092,2.373-0.075c0.327,0.007,0.863-0.044,1.163,0.099
	c0.1,0.048,0.546,0.407,0.252,0.507c-0.078,0.027-0.173-0.045-0.168-0.127c0.376,0.307,0.598,0.795,0.581,1.281
	c-0.116,3.475-0.07,6.935-0.074,10.411c-0.004,3.391-0.007,6.782-0.011,10.173c-0.007,6.594-0.013,13.187-0.019,19.781
	c-0.006,6.346-0.011,12.693-0.016,19.039c-0.005,6.104-0.01,12.208-0.014,18.311c-0.004,5.866-0.008,11.732-0.011,17.598
	c-0.003,5.633-0.006,11.266-0.009,16.899c-0.003,5.405-0.005,10.809-0.007,16.214c-0.002,5.181-0.003,10.362-0.005,15.543
	c-0.001,4.962-0.002,9.924-0.003,14.886c-0.001,4.748-0.001,9.496-0.001,14.244c0,4.539,0,9.077,0.001,13.616
	c0.001,4.334,0.001,8.668,0.002,13.002c0.001,4.134,0.002,8.269,0.004,12.403c0.001,3.939,0.003,7.878,0.005,11.818
	c0.002,3.749,0.004,7.498,0.006,11.247c0.002,3.563,0.004,7.127,0.007,10.69c0.002,3.382,0.005,6.765,0.008,10.147
	c0.003,3.206,0.005,6.413,0.008,9.619c0.003,3.035,0.006,6.07,0.009,9.105c0.003,2.868,0.006,5.737,0.009,8.605
	c0.003,2.707,0.006,5.413,0.009,8.12c0.003,2.55,0.006,5.099,0.009,7.649c0.003,2.397,0.006,4.794,0.009,7.191
	c0.003,2.25,0.006,4.499,0.009,6.749c0.003,2.107,0.005,4.214,0.008,6.32c0.003,1.969,0.005,3.937,0.008,5.906
	c0.002,1.835,0.005,3.671,0.007,5.506c0.002,1.707,0.004,3.413,0.006,5.12c0.002,1.583,0.003,3.166,0.005,4.749
	c0.001,1.464,0.003,2.928,0.004,4.391c0.001,1.349,0.002,2.699,0.002,4.048c0.001,1.24,0.001,2.48,0.001,3.719
	c0,1.135,0,2.27-0.001,3.405c-0.001,1.035-0.001,2.07-0.003,3.105c-0.001,0.94-0.003,1.879-0.004,2.819
	c-0.002,0.849-0.004,1.698-0.007,2.547c-0.002,0.763-0.005,1.526-0.009,2.289c-0.003,0.682-0.007,1.364-0.011,2.046
	c-0.004,0.606-0.008,1.211-0.014,1.817c-0.005,0.534-0.01,1.068-0.016,1.602c-0.006,0.467-0.012,0.935-0.019,1.402
	c-0.006,0.405-0.014,0.81-0.022,1.215c-0.007,0.348-0.016,0.696-0.025,1.043c-0.008,0.295-0.018,0.591-0.029,0.886
	c-0.009,0.247-0.02,0.495-0.032,0.742c-0.01,0.204-0.022,0.409-0.036,0.613c-0.011,0.166-0.024,0.332-0.039,0.498
	c-0.013,0.132-0.025,0.265-0.043,0.397c-0.014,0.104-0.027,0.208-0.047,0.311c-0.016,0.079-0.028,0.16-0.051,0.238
	c-0.018,0.06-0.032,0.122-0.056,0.18c-0.019,0.046-0.037,0.092-0.06,0.136c-0.019,0.037-0.043,0.071-0.065,0.107
	c-0.02,0.033-0.049,0.06-0.07,0.092c-0.021,0.033-0.052,0.059-0.075,0.091c-0.025,0.036-0.054,0.068-0.08,0.104
	c-0.029,0.04-0.055,0.081-0.08,0.124c-1.001,0.084-5.536,0.443-6.145,1.301l-0.725-0.3l-0.767,0.467l-0.008,0.734
	c-11.245,1.798-18.631,27.458-2.218,39.397c29.065,13.89,42.011-18.944,27.682-34.945c-2.042-1.675-0.958-387.374-0.951-388.374
	c6.245-0.167,12.507-0.275,18.744,0.042l0.892,0.809c0.142-13.641,0.175-27.29-0.033-40.923c16.509-0.325,33.027-0.042,49.536-0.15
	c0.067,13.399,0.05,26.798,0.033,40.189c6.662,0.117,13.332,0.092,20.003,0.008c0.146,49.141,0.14,452.76,0.083,500.019
	c-1.934,0.759-3.911,1.518-5.495,2.91c-54.388,0.017-108.785,0.075-163.174-0.025c-8.98-10.195-29.904-10.392-36.354,5.928
	c-3.813,10.773-1.416,25.529,14.383,31.367c8.841,0.502,23.885,3.167,27.916-20.786c54.347-0.133,108.702-0.075,163.049-0.025
	c0.891-0.408,12.161-9.939,13.999-11.306v-0.342c0.3-0.192,0.917-0.559,1.217-0.75c1.621-1.834,0.125-491.928,0.992-506.94
	c3.477-0.033,6.962-0.058,10.447-0.017l1.084,0.592c0.158-13.499,0.117-26.998,0.017-40.489l0.25-0.158
	c16.351,0.108,32.718,0.058,49.077,0.017c0.175,13.366,0.158,26.757,0.025,40.131c2.364,0.701,3.411,0.467,14.741,0.467
	c0.022,1.011,1.493,342.645-1.743,345c-10.3,0.266-19.895,8.841-17.818,28.366c2.12,5.396,4.357,12.677,15.984,16.092
	c8.737,0.641,12.358,0.405,18.435-3.402c0.175-0.3,0.517-0.892,0.692-1.192c4.596,0.088,15.805-26.199-2.518-36.829l-0.075-0.367
	c0.458-4.791-0.11-277.582,0.308-347.56c-0.167-0.033-0.334-0.058-0.5-0.083c6.737,0.017,13.466,0.008,20.195-0.117l0.917,0.359
	c0.342-13.574,0.133-27.173,0.108-40.756c3.534-0.689,28.302-0.107,49.811-0.425c-0.183,13.641,0.025,27.29-0.1,40.931
	c7.646,0.042,15.292-0.025,22.946-0.058l0.308,0.375c-0.025,126.295-0.075,252.59,0.058,378.877l0.45-0.792l0.367,1.134
	c72.232-0.317,144.472,0.008,216.712-0.158c4.001,11.132,6.277,11.732,12.874,15.817c41.652,10.32,37.854-51.947,1.743-42.832
	c-6.794,0.131-12.414,9.497-13.191,10.498c-16.124-0.005-191.685-0.124-203.238,0.208c0.192-18.962,0.12-354.544,0.117-363.068
	c3.127,0.042,6.245,0.1,9.372,0.2c0.387-3.041,0.196-37.259,0.117-40.698c16.209,0.45,32.46,0.042,48.677,0.175
	c0.359,13.266,0.175,26.565,0.067,39.839c2.667-0.163,12.218-0.143,18.202-0.134c0.837,5.314,0.159,268.893,0.15,269.958
	c5.98,1.104,228.35-0.279,234.03,0.784l0.117-1.309c1.701,20.252,28.351,24.778,37.413,12.273
	c13.816-15.667,0.896-44.782-23.613-37.162c-6.228,1.292-11.098,6.862-12.857,12.832c-0.367,0.158-1.092,0.467-1.459,0.625
	c-12.125-0.447-203.542,0.072-221.515-0.375c0.275-85.864-0.042-171.745,0.158-257.618c16.467,0,15.451-0.268,18.544,0.675
	c0.15-13.599-0.15-27.207,0.15-40.798c32.41-0.158,64.828-0.1,97.237-0.025l0.584,0.434c0.224-10.213,0.151-121.926,0.15-123.519
	c13.166-0.625,26.398-0.058,39.589-0.284c0.242,0.108,0.717,0.333,0.959,0.442c0.033-4.911,0.083-9.822-0.033-14.725
	c47.555-0.375,141.07,0.155,162.84-0.275c0.308,0.417,0.925,1.242,1.234,1.659c0.003,1.008,0.662,190.142-0.917,192.699
	c-5.943,1.528-13.776,9.586-12.357,24.93c3.126,20.515,25.894,20.83,33.744,15.3c0.208-0.259,0.642-0.784,0.85-1.042
	c2.535-0.967,3.811-3.677,5.42-5.703l0.008-0.917l0.1,0.592c7.02-13.278,1.346-31.32-14.075-34.344
	c-0.108-69.922-0.083-139.844-0.008-209.766c-58.924,0-117.84,0.067-176.765-0.033c-0.025-5.778,0.017-11.556-0.008-17.326
	c-13.541,0.042-27.073-0.042-40.606,0.042c0.083-16.392-0.033-32.785,0.058-49.169c13.499-0.242,27.015-0.233,40.514,0
	c0.167-7.479-0.142-14.967,0.15-22.429l0.7-0.709c66.612,0.033,133.224,0.042,199.828-0.008c4.488,1.395-0.95,17.718,28.933,16.534
	C1495.956,816.136,1494.128,792.151,1481.86,783.485z"/>
</svg>
