<svg xmlns="http://www.w3.org/2000/svg" xmlns:xlink="http://www.w3.org/1999/xlink" contentStyleType="text/css" height="1410px" preserveAspectRatio="none" style="width:904px;height:1410px;background:#FFFFFF;" version="1.1" viewBox="0 0 904 1410" width="904px" zoomAndPan="magnify"><defs><filter height="300%" id="f18cjzm8sl57iq" width="300%" x="-1" y="-1"><feGaussianBlur result="blurOut" stdDeviation="2.0"/><feColorMatrix in="blurOut" result="blurOut2" type="matrix" values="0 0 0 0 0 0 0 0 0 0 0 0 0 0 0 0 0 0 .4 0"/><feOffset dx="4.0" dy="4.0" in="blurOut2" result="blurOut3"/><feBlend in="SourceGraphic" in2="blurOut3" mode="normal"/></filter></defs><g><rect fill="#DDDDDD" height="1398" style="stroke:#181818;stroke-width:0.5;" width="221.7686" x="288.0227" y="6"/><text fill="#000000" font-family="sans-serif" font-size="13" font-weight="bold" lengthAdjust="spacing" textLength="33.1538" x="382.3301" y="18.0669">UEFI</text><rect fill="#DDDDDD" height="1398" style="stroke:#181818;stroke-width:0.5;" width="219.502" x="521.7913" y="6"/><text fill="#000000" font-family="sans-serif" font-size="13" font-weight="bold" lengthAdjust="spacing" textLength="107.3071" x="577.8887" y="18.0669">Capsule image</text><line style="stroke:#181818;stroke-width:0.5;stroke-dasharray:5.0,5.0;" x1="103.1384" x2="103.1384" y1="60.4297" y2="1362.7031"/><rect fill="#FFFFFF" height="252.1953" style="stroke:#181818;stroke-width:1.0;" width="10" x="98.1384" y="68.4297"/><line style="stroke:#181818;stroke-width:0.5;stroke-dasharray:5.0,5.0;" x1="193.1462" x2="193.1462" y1="60.4297" y2="1362.7031"/><rect fill="#FFFFFF" height="385.8594" style="stroke:#181818;stroke-width:1.0;" width="10" x="188.1462" y="320.625"/><line style="stroke:#181818;stroke-width:0.5;stroke-dasharray:5.0,5.0;" x1="309.7312" x2="309.7312" y1="60.4297" y2="1362.7031"/><rect fill="#FFFFFF" height="108.5313" style="stroke:#181818;stroke-width:1.0;" width="10" x="304.7312" y="706.4844"/><line style="stroke:#181818;stroke-width:0.5;stroke-dasharray:5.0,5.0;" x1="391.1184" x2="391.1184" y1="60.4297" y2="1362.7031"/><rect fill="#FFFFFF" height="515.6875" style="stroke:#181818;stroke-width:1.0;" width="10" x="386.1184" y="815.0156"/><line style="stroke:#181818;stroke-width:0.5;stroke-dasharray:5.0,5.0;" x1="464.259" x2="464.259" y1="60.4297" y2="1362.7031"/><line style="stroke:#181818;stroke-width:0.5;stroke-dasharray:5.0,5.0;" x1="547.0784" x2="547.0784" y1="1042.0781" y2="1362.7031"/><rect fill="#FFFFFF" height="143.6641" style="stroke:#181818;stroke-width:1.0;" width="10" x="542.0784" y="1157.9063"/><line style="stroke:#181818;stroke-width:0.5;stroke-dasharray:5.0,5.0;" x1="610.8533" x2="610.8533" y1="60.4297" y2="1362.7031"/><line style="stroke:#181818;stroke-width:0.5;stroke-dasharray:5.0,5.0;" x1="695.3171" x2="695.3171" y1="1042.0781" y2="1362.7031"/><line style="stroke:#181818;stroke-width:0.5;stroke-dasharray:5.0,5.0;" x1="781.9851" x2="781.9851" y1="60.4297" y2="1362.7031"/><rect fill="#E2E2F0" height="30.2969" rx="2.5" ry="2.5" style="stroke:#181818;stroke-width:0.5;" width="83.877" x="61.2" y="29.1328"/><text fill="#000000" font-family="sans-serif" font-size="14" lengthAdjust="spacing" textLength="69.877" x="68.2" y="49.1279">UEFI Shell</text><rect fill="#E2E2F0" height="30.2969" rx="2.5" ry="2.5" style="stroke:#181818;stroke-width:0.5;" width="76.1387" x="155.0769" y="29.1328"/><text fill="#000000" font-family="sans-serif" font-size="14" lengthAdjust="spacing" textLength="62.1387" x="162.0769" y="49.1279">coreboot</text><rect fill="#E2E2F0" height="30.2969" rx="2.5" ry="2.5" style="stroke:#181818;stroke-width:0.5;" width="35.417" x="292.0227" y="29.1328"/><text fill="#000000" font-family="sans-serif" font-size="14" lengthAdjust="spacing" textLength="21.417" x="299.0227" y="49.1279">PEI</text><rect fill="#E2E2F0" height="30.2969" rx="2.5" ry="2.5" style="stroke:#181818;stroke-width:0.5;" width="43.2168" x="369.51" y="29.1328"/><text fill="#000000" font-family="sans-serif" font-size="14" lengthAdjust="spacing" textLength="29.2168" x="376.51" y="49.1279">DXE</text><rect fill="#E2E2F0" height="30.2969" style="stroke:#181818;stroke-width:0.5;" width="79.0645" x="426.7268" y="25.1328"/><rect fill="#E2E2F0" height="30.2969" style="stroke:#181818;stroke-width:0.5;" width="79.0645" x="422.7268" y="29.1328"/><text fill="#000000" font-family="sans-serif" font-size="14" lengthAdjust="spacing" textLength="65.0645" x="429.7268" y="49.1279">Variables</text><rect fill="#E2E2F0" height="30.2969" rx="2.5" ry="2.5" style="stroke:#181818;stroke-width:0.5;" width="64.9756" x="578.3655" y="29.1328"/><text fill="#000000" font-family="sans-serif" font-size="14" lengthAdjust="spacing" textLength="50.9756" x="585.3655" y="49.1279">Header</text><rect fill="#E2E2F0" height="30.2969" style="stroke:#181818;stroke-width:0.5;" width="45.3838" x="761.2932" y="25.1328"/><rect fill="#E2E2F0" height="30.2969" style="stroke:#181818;stroke-width:0.5;" width="45.3838" x="757.2932" y="29.1328"/><text fill="#000000" font-family="sans-serif" font-size="14" lengthAdjust="spacing" textLength="31.3838" x="764.2932" y="49.1279">RAM</text><rect fill="#E2E2F0" height="30.2969" rx="2.5" ry="2.5" style="stroke:#181818;stroke-width:0.5;" width="83.877" x="61.2" y="1362.7031"/><text fill="#000000" font-family="sans-serif" font-size="14" lengthAdjust="spacing" textLength="69.877" x="68.2" y="1382.6982">UEFI Shell</text><rect fill="#E2E2F0" height="30.2969" rx="2.5" ry="2.5" style="stroke:#181818;stroke-width:0.5;" width="76.1387" x="155.0769" y="1362.7031"/><text fill="#000000" font-family="sans-serif" font-size="14" lengthAdjust="spacing" textLength="62.1387" x="162.0769" y="1382.6982">coreboot</text><rect fill="#E2E2F0" height="30.2969" rx="2.5" ry="2.5" style="stroke:#181818;stroke-width:0.5;" width="35.417" x="292.0227" y="1362.7031"/><text fill="#000000" font-family="sans-serif" font-size="14" lengthAdjust="spacing" textLength="21.417" x="299.0227" y="1382.6982">PEI</text><rect fill="#E2E2F0" height="30.2969" rx="2.5" ry="2.5" style="stroke:#181818;stroke-width:0.5;" width="43.2168" x="369.51" y="1362.7031"/><text fill="#000000" font-family="sans-serif" font-size="14" lengthAdjust="spacing" textLength="29.2168" x="376.51" y="1382.6982">DXE</text><rect fill="#E2E2F0" height="30.2969" style="stroke:#181818;stroke-width:0.5;" width="79.0645" x="426.7268" y="1362.7031"/><rect fill="#E2E2F0" height="30.2969" style="stroke:#181818;stroke-width:0.5;" width="79.0645" x="422.7268" y="1366.7031"/><text fill="#000000" font-family="sans-serif" font-size="14" lengthAdjust="spacing" textLength="65.0645" x="429.7268" y="1386.6982">Variables</text><rect fill="#E2E2F0" height="30.2969" rx="2.5" ry="2.5" style="stroke:#181818;stroke-width:0.5;" width="42.5742" x="525.7913" y="1362.7031"/><text fill="#000000" font-family="sans-serif" font-size="14" lengthAdjust="spacing" textLength="28.5742" x="532.7913" y="1382.6982">FMP</text><rect fill="#E2E2F0" height="30.2969" rx="2.5" ry="2.5" style="stroke:#181818;stroke-width:0.5;" width="64.9756" x="578.3655" y="1362.7031"/><text fill="#000000" font-family="sans-serif" font-size="14" lengthAdjust="spacing" textLength="50.9756" x="585.3655" y="1382.6982">Header</text><rect fill="#E2E2F0" height="30.2969" rx="2.5" ry="2.5" style="stroke:#181818;stroke-width:0.5;" width="83.9521" x="653.3411" y="1362.7031"/><text fill="#000000" font-family="sans-serif" font-size="14" lengthAdjust="spacing" textLength="69.9521" x="660.3411" y="1382.6982">FW image</text><rect fill="#E2E2F0" height="30.2969" style="stroke:#181818;stroke-width:0.5;" width="45.3838" x="761.2932" y="1362.7031"/><rect fill="#E2E2F0" height="30.2969" style="stroke:#181818;stroke-width:0.5;" width="45.3838" x="757.2932" y="1366.7031"/><text fill="#000000" font-family="sans-serif" font-size="14" lengthAdjust="spacing" textLength="31.3838" x="764.2932" y="1386.6982">RAM</text><polygon fill="#CCEEFF" filter="url(#f18cjzm8sl57iq)" points="685.8652,73.4297,877.8652,73.4297,887.8652,99.4297,877.8652,126.4297,685.8652,126.4297,675.8652,99.4297,685.8652,73.4297" style="stroke:#181818;stroke-width:0.5;"/><text fill="#000000" font-family="sans-serif" font-size="13" lengthAdjust="spacing" textLength="160.3101" x="701.8301" y="89.4966">Represents data in RAM,</text><text fill="#000000" font-family="sans-serif" font-size="13" lengthAdjust="spacing" textLength="188.2397" x="687.8652" y="104.6294">such as UEFI HOBs, coreboot</text><text fill="#000000" font-family="sans-serif" font-size="13" lengthAdjust="spacing" textLength="172.1929" x="695.8887" y="119.7622">CBMEM and system tables</text><path d="M8,135.8281 L77.4512,135.8281 L77.4512,142.9609 L67.4512,152.9609 L8,152.9609 L8,135.8281 " fill="#EEEEEE" style="stroke:#000000;stroke-width:1.5;"/><rect fill="none" height="149.6641" style="stroke:#000000;stroke-width:1.5;" width="789.9851" x="8" y="135.8281"/><text fill="#000000" font-family="sans-serif" font-size="13" font-weight="bold" lengthAdjust="spacing" textLength="24.4512" x="23" y="148.895">opt</text><path d="M29,167.9609 L29,192.9609 L177,192.9609 L177,177.9609 L167,167.9609 L29,167.9609 " fill="#FEFFDD" style="stroke:#181818;stroke-width:0.5;"/><path d="M167,167.9609 L167,177.9609 L177,177.9609 L167,167.9609 " fill="#FEFFDD" style="stroke:#181818;stroke-width:0.5;"/><text fill="#000000" font-family="sans-serif" font-size="13" lengthAdjust="spacing" textLength="127.2769" x="35" y="185.0278">Run CapsuleApp.efi</text><polygon fill="#181818" points="119.1384,215.2266,109.1384,219.2266,119.1384,223.2266,115.1384,219.2266" style="stroke:#181818;stroke-width:1.0;"/><line style="stroke:#181818;stroke-width:1.0;stroke-dasharray:2.0,2.0;" x1="113.1384" x2="609.8533" y1="219.2266" y2="219.2266"/><text fill="#000000" font-family="sans-serif" font-size="13" lengthAdjust="spacing" textLength="217.0073" x="125.1384" y="214.1606">Load and validate Capsule image</text><polygon fill="#181818" points="769.9851,244.3594,779.9851,248.3594,769.9851,252.3594,773.9851,248.3594" style="stroke:#181818;stroke-width:1.0;"/><line style="stroke:#181818;stroke-width:1.0;stroke-dasharray:2.0,2.0;" x1="108.1384" x2="775.9851" y1="248.3594" y2="248.3594"/><text fill="#000000" font-family="sans-serif" font-size="13" lengthAdjust="spacing" textLength="317.5796" x="115.1384" y="243.2935">Store (possibly scattered) Capsule image in RAM</text><polygon fill="#181818" points="452.259,273.4922,462.259,277.4922,452.259,281.4922,456.259,277.4922" style="stroke:#181818;stroke-width:1.0;"/><line style="stroke:#181818;stroke-width:1.0;stroke-dasharray:2.0,2.0;" x1="108.1384" x2="458.259" y1="277.4922" y2="277.4922"/><text fill="#000000" font-family="sans-serif" font-size="13" lengthAdjust="spacing" textLength="215.7632" x="115.1384" y="272.4263">Save information about Capsules</text><polygon fill="#181818" points="176.1462,316.625,186.1462,320.625,176.1462,324.625,180.1462,320.625" style="stroke:#181818;stroke-width:1.0;"/><line style="stroke:#181818;stroke-width:1.0;" x1="108.1384" x2="182.1462" y1="320.625" y2="320.625"/><text fill="#000000" font-family="sans-serif" font-size="13" lengthAdjust="spacing" textLength="46.2871" x="115.1384" y="315.5591">Reboot</text><polygon fill="#181818" points="209.1462,345.7578,199.1462,349.7578,209.1462,353.7578,205.1462,349.7578" style="stroke:#181818;stroke-width:1.0;"/><line style="stroke:#181818;stroke-width:1.0;stroke-dasharray:2.0,2.0;" x1="203.1462" x2="463.259" y1="349.7578" y2="349.7578"/><text fill="#000000" font-family="sans-serif" font-size="13" lengthAdjust="spacing" textLength="181.9302" x="215.1462" y="344.6919">Check for Capsule presence</text><path d="M127.2292,361.7578 L196.6804,361.7578 L196.6804,368.8906 L186.6804,378.8906 L127.2292,378.8906 L127.2292,361.7578 " fill="#EEEEEE" style="stroke:#000000;stroke-width:1.5;"/><rect fill="none" height="215.0625" style="stroke:#000000;stroke-width:1.5;" width="670.7559" x="127.2292" y="361.7578"/><text fill="#000000" font-family="sans-serif" font-size="13" font-weight="bold" lengthAdjust="spacing" textLength="24.4512" x="142.2292" y="374.8247">opt</text><polygon fill="#181818" points="209.1462,406.0234,199.1462,410.0234,209.1462,414.0234,205.1462,410.0234" style="stroke:#181818;stroke-width:1.0;"/><line style="stroke:#181818;stroke-width:1.0;stroke-dasharray:2.0,2.0;" x1="203.1462" x2="780.9851" y1="410.0234" y2="410.0234"/><text fill="#000000" font-family="sans-serif" font-size="13" lengthAdjust="spacing" textLength="229.8232" x="215.1462" y="404.9575">Read scattered Capsules from RAM</text><path d="M148.2292,423.0234 L148.2292,463.0234 L237.2292,463.0234 L237.2292,433.0234 L227.2292,423.0234 L148.2292,423.0234 " fill="#FEFFDD" style="stroke:#181818;stroke-width:0.5;"/><path d="M227.2292,423.0234 L227.2292,433.0234 L237.2292,433.0234 L227.2292,423.0234 " fill="#FEFFDD" style="stroke:#181818;stroke-width:0.5;"/><text fill="#000000" font-family="sans-serif" font-size="13" lengthAdjust="spacing" textLength="58.5254" x="154.2292" y="440.0903">Coalesce</text><text fill="#000000" font-family="sans-serif" font-size="13" lengthAdjust="spacing" textLength="68.834" x="154.2292" y="455.2231">Capsule(s)</text><polygon fill="#181818" points="769.9851,485.4219,779.9851,489.4219,769.9851,493.4219,773.9851,489.4219" style="stroke:#181818;stroke-width:1.0;"/><line style="stroke:#181818;stroke-width:1.0;stroke-dasharray:2.0,2.0;" x1="198.1462" x2="775.9851" y1="489.4219" y2="489.4219"/><text fill="#000000" font-family="sans-serif" font-size="13" lengthAdjust="spacing" textLength="217.166" x="205.1462" y="484.356">Write coalesced Capsules to RAM</text><polygon fill="#181818" points="769.9851,514.5547,779.9851,518.5547,769.9851,522.5547,773.9851,518.5547" style="stroke:#181818;stroke-width:1.0;"/><line style="stroke:#181818;stroke-width:1.0;stroke-dasharray:2.0,2.0;" x1="198.1462" x2="775.9851" y1="518.5547" y2="518.5547"/><text fill="#000000" font-family="sans-serif" font-size="13" lengthAdjust="spacing" textLength="190.8105" x="205.1462" y="513.4888">Create Capsule CBMEM entry</text><path d="M149.3623,531.5547 L149.3623,571.5547 L236.3623,571.5547 L236.3623,541.5547 L226.3623,531.5547 L149.3623,531.5547 " fill="#FEFFDD" style="stroke:#181818;stroke-width:0.5;"/><path d="M226.3623,531.5547 L226.3623,541.5547 L236.3623,541.5547 L226.3623,531.5547 " fill="#FEFFDD" style="stroke:#181818;stroke-width:0.5;"/><text fill="#000000" font-family="sans-serif" font-size="13" lengthAdjust="spacing" textLength="66.5679" x="155.3623" y="548.6216">Install SMI</text><text fill="#000000" font-family="sans-serif" font-size="13" lengthAdjust="spacing" textLength="49.6514" x="155.3623" y="563.7544">handler</text><path d="M157.2778,595.8203 L157.2778,650.8203 L228.2778,650.8203 L228.2778,605.8203 L218.2778,595.8203 L157.2778,595.8203 " fill="#FEFFDD" style="stroke:#181818;stroke-width:0.5;"/><path d="M218.2778,595.8203 L218.2778,605.8203 L228.2778,605.8203 L218.2778,595.8203 " fill="#FEFFDD" style="stroke:#181818;stroke-width:0.5;"/><text fill="#000000" font-family="sans-serif" font-size="13" lengthAdjust="spacing" textLength="43.3989" x="163.2778" y="612.8872">Obtain</text><text fill="#000000" font-family="sans-serif" font-size="13" lengthAdjust="spacing" textLength="47.6138" x="163.2778" y="628.02">version</text><text fill="#000000" font-family="sans-serif" font-size="13" lengthAdjust="spacing" textLength="50.7368" x="163.2778" y="643.1528">number</text><polygon fill="#181818" points="769.9851,673.3516,779.9851,677.3516,769.9851,681.3516,773.9851,677.3516" style="stroke:#181818;stroke-width:1.0;"/><line style="stroke:#181818;stroke-width:1.0;stroke-dasharray:2.0,2.0;" x1="198.1462" x2="775.9851" y1="677.3516" y2="677.3516"/><text fill="#000000" font-family="sans-serif" font-size="13" lengthAdjust="spacing" textLength="186.5068" x="205.1462" y="672.2856">Create version CBMEM entry</text><polygon fill="#181818" points="292.7312,702.4844,302.7312,706.4844,292.7312,710.4844,296.7312,706.4844" style="stroke:#181818;stroke-width:1.0;"/><line style="stroke:#181818;stroke-width:1.0;" x1="198.1462" x2="298.7312" y1="706.4844" y2="706.4844"/><text fill="#000000" font-family="sans-serif" font-size="13" lengthAdjust="spacing" textLength="87.585" x="205.1462" y="701.4185">Start payload</text><polygon fill="#181818" points="325.7312,731.6172,315.7312,735.6172,325.7312,739.6172,321.7312,735.6172" style="stroke:#181818;stroke-width:1.0;"/><line style="stroke:#181818;stroke-width:1.0;stroke-dasharray:2.0,2.0;" x1="319.7312" x2="780.9851" y1="735.6172" y2="735.6172"/><text fill="#000000" font-family="sans-serif" font-size="13" lengthAdjust="spacing" textLength="209.3267" x="331.7312" y="730.5513">Check for Capsule CBMEM entry</text><path d="M264.1033,748.6172 L264.1033,788.6172 L355.1033,788.6172 L355.1033,758.6172 L345.1033,748.6172 L264.1033,748.6172 " fill="#FEFFDD" style="stroke:#181818;stroke-width:0.5;"/><path d="M345.1033,748.6172 L345.1033,758.6172 L355.1033,758.6172 L345.1033,748.6172 " fill="#FEFFDD" style="stroke:#181818;stroke-width:0.5;"/><text fill="#000000" font-family="sans-serif" font-size="13" lengthAdjust="spacing" textLength="68.6245" x="270.1033" y="765.6841">Set proper</text><text fill="#000000" font-family="sans-serif" font-size="13" lengthAdjust="spacing" textLength="70.2559" x="270.1033" y="780.8169">boot mode</text><polygon fill="#181818" points="374.1184,811.0156,384.1184,815.0156,374.1184,819.0156,378.1184,815.0156" style="stroke:#181818;stroke-width:1.0;"/><line style="stroke:#181818;stroke-width:1.0;" x1="314.7312" x2="380.1184" y1="815.0156" y2="815.0156"/><text fill="#000000" font-family="sans-serif" font-size="13" lengthAdjust="spacing" textLength="52.3872" x="321.7312" y="809.9497">Execute</text><polygon fill="#181818" points="407.1184,840.1484,397.1184,844.1484,407.1184,848.1484,403.1184,844.1484" style="stroke:#181818;stroke-width:1.0;"/><line style="stroke:#181818;stroke-width:1.0;stroke-dasharray:2.0,2.0;" x1="401.1184" x2="780.9851" y1="844.1484" y2="844.1484"/><text fill="#000000" font-family="sans-serif" font-size="13" lengthAdjust="spacing" textLength="176.2744" x="413.1184" y="839.0825">Read version CBMEM entry</text><path d="M340.0315,857.1484 L340.0315,897.1484 L442.0315,897.1484 L442.0315,867.1484 L432.0315,857.1484 L340.0315,857.1484 " fill="#FEFFDD" style="stroke:#181818;stroke-width:0.5;"/><path d="M432.0315,857.1484 L432.0315,867.1484 L442.0315,867.1484 L432.0315,857.1484 " fill="#FEFFDD" style="stroke:#181818;stroke-width:0.5;"/><text fill="#000000" font-family="sans-serif" font-size="13" lengthAdjust="spacing" textLength="68.5864" x="346.0315" y="874.2153">Convert to</text><text fill="#000000" font-family="sans-serif" font-size="13" lengthAdjust="spacing" textLength="81.1738" x="346.0315" y="889.3481">ESRT format</text><polygon fill="#181818" points="769.9851,919.5469,779.9851,923.5469,769.9851,927.5469,773.9851,923.5469" style="stroke:#181818;stroke-width:1.0;"/><line style="stroke:#181818;stroke-width:1.0;stroke-dasharray:2.0,2.0;" x1="396.1184" x2="775.9851" y1="923.5469" y2="923.5469"/><text fill="#000000" font-family="sans-serif" font-size="13" lengthAdjust="spacing" textLength="110.9824" x="403.1184" y="918.481">Write ESRT entry</text><path d="M345.4905,936.5469 L345.4905,976.5469 L436.4905,976.5469 L436.4905,946.5469 L426.4905,936.5469 L345.4905,936.5469 " fill="#FEFFDD" style="stroke:#181818;stroke-width:0.5;"/><path d="M426.4905,936.5469 L426.4905,946.5469 L436.4905,946.5469 L426.4905,936.5469 " fill="#FEFFDD" style="stroke:#181818;stroke-width:0.5;"/><text fill="#000000" font-family="sans-serif" font-size="13" lengthAdjust="spacing" textLength="39.9902" x="351.4905" y="953.6138">Check</text><text fill="#000000" font-family="sans-serif" font-size="13" lengthAdjust="spacing" textLength="70.2559" x="351.4905" y="968.7466">boot mode</text><path d="M177.1462,985.8125 L246.5974,985.8125 L246.5974,992.9453 L236.5974,1002.9453 L177.1462,1002.9453 L177.1462,985.8125 " fill="#EEEEEE" style="stroke:#000000;stroke-width:1.5;"/><rect fill="none" height="352.8906" style="stroke:#000000;stroke-width:1.5;" width="620.8389" x="177.1462" y="985.8125"/><text fill="#000000" font-family="sans-serif" font-size="13" font-weight="bold" lengthAdjust="spacing" textLength="24.4512" x="192.1462" y="998.8794">opt</text><polygon fill="#181818" points="407.1184,1030.0781,397.1184,1034.0781,407.1184,1038.0781,403.1184,1034.0781" style="stroke:#181818;stroke-width:1.0;"/><line style="stroke:#181818;stroke-width:1.0;stroke-dasharray:2.0,2.0;" x1="401.1184" x2="609.8533" y1="1034.0781" y2="1034.0781"/><text fill="#000000" font-family="sans-serif" font-size="13" lengthAdjust="spacing" textLength="53.3965" x="413.1184" y="1029.0122">Validate</text><rect fill="#E2E2F0" height="30.2969" rx="2.5" ry="2.5" style="stroke:#181818;stroke-width:0.5;" width="42.5742" x="525.7913" y="1042.0781"/><text fill="#000000" font-family="sans-serif" font-size="14" lengthAdjust="spacing" textLength="28.5742" x="532.7913" y="1062.0732">FMP</text><rect fill="#E2E2F0" height="30.2969" rx="2.5" ry="2.5" style="stroke:#181818;stroke-width:0.5;" width="83.9521" x="653.3411" y="1042.0781"/><text fill="#000000" font-family="sans-serif" font-size="14" lengthAdjust="spacing" textLength="69.9521" x="660.3411" y="1062.0732">FW image</text><polygon fill="#CCEEFF" filter="url(#f18cjzm8sl57iq)" points="480.7957,1078.375,612.7957,1078.375,622.7957,1104.375,612.7957,1131.375,480.7957,1131.375,470.7957,1104.375,480.7957,1078.375" style="stroke:#181818;stroke-width:0.5;"/><text fill="#000000" font-family="sans-serif" font-size="13" lengthAdjust="spacing" textLength="109.8081" x="492.1743" y="1094.4419">FMP may also be</text><text fill="#000000" font-family="sans-serif" font-size="13" lengthAdjust="spacing" textLength="128.5654" x="482.7957" y="1109.5747">part of UEFI instead</text><text fill="#000000" font-family="sans-serif" font-size="13" lengthAdjust="spacing" textLength="113.2041" x="490.4763" y="1124.7075">of Capsule image</text><polygon fill="#181818" points="530.0784,1153.9063,540.0784,1157.9063,530.0784,1161.9063,534.0784,1157.9063" style="stroke:#181818;stroke-width:1.0;"/><line style="stroke:#181818;stroke-width:1.0;" x1="396.1184" x2="536.0784" y1="1157.9063" y2="1157.9063"/><text fill="#000000" font-family="sans-serif" font-size="13" lengthAdjust="spacing" textLength="52.3872" x="403.1184" y="1152.8403">Execute</text><polygon fill="#181818" points="563.0784,1183.0391,553.0784,1187.0391,563.0784,1191.0391,559.0784,1187.0391" style="stroke:#181818;stroke-width:1.0;"/><line style="stroke:#181818;stroke-width:1.0;stroke-dasharray:2.0,2.0;" x1="557.0784" x2="780.9851" y1="1187.0391" y2="1187.0391"/><text fill="#000000" font-family="sans-serif" font-size="13" lengthAdjust="spacing" textLength="157.2378" x="569.0784" y="1181.9731">Read version from ESRT</text><path d="M410.0769,1170.9063 L410.0769,1195.9063 L542.0769,1195.9063 L542.0769,1180.9063 L532.0769,1170.9063 L410.0769,1170.9063 " fill="#FEFFDD" style="stroke:#181818;stroke-width:0.5;"/><path d="M532.0769,1170.9063 L532.0769,1180.9063 L542.0769,1180.9063 L532.0769,1170.9063 " fill="#FEFFDD" style="stroke:#181818;stroke-width:0.5;"/><text fill="#000000" font-family="sans-serif" font-size="13" lengthAdjust="spacing" textLength="111.0015" x="416.0769" y="1187.9731">Compare version</text><polygon fill="#181818" points="563.0784,1218.1719,553.0784,1222.1719,563.0784,1226.1719,559.0784,1222.1719" style="stroke:#181818;stroke-width:1.0;"/><line style="stroke:#181818;stroke-width:1.0;stroke-dasharray:2.0,2.0;" x1="557.0784" x2="694.3171" y1="1222.1719" y2="1222.1719"/><text fill="#000000" font-family="sans-serif" font-size="13" lengthAdjust="spacing" textLength="118.168" x="569.0784" y="1217.106">Read and validate</text><polygon fill="#181818" points="204.1462,1247.3047,194.1462,1251.3047,204.1462,1255.3047,200.1462,1251.3047" style="stroke:#181818;stroke-width:1.0;"/><polygon fill="#181818" points="530.0784,1247.3047,540.0784,1251.3047,530.0784,1255.3047,534.0784,1251.3047" style="stroke:#181818;stroke-width:1.0;"/><line style="stroke:#181818;stroke-width:1.0;" x1="198.1462" x2="536.0784" y1="1251.3047" y2="1251.3047"/><text fill="#000000" font-family="sans-serif" font-size="13" lengthAdjust="spacing" textLength="156.5903" x="210.1462" y="1246.2388">SMI call(s) and return(s)</text><path d="M557.0784,1235.1719 L557.0784,1275.1719 L670.0784,1275.1719 L670.0784,1245.1719 L660.0784,1235.1719 L557.0784,1235.1719 " fill="#FEFFDD" style="stroke:#181818;stroke-width:0.5;"/><path d="M660.0784,1235.1719 L660.0784,1245.1719 L670.0784,1245.1719 L660.0784,1235.1719 " fill="#FEFFDD" style="stroke:#181818;stroke-width:0.5;"/><text fill="#000000" font-family="sans-serif" font-size="13" lengthAdjust="spacing" textLength="59.3696" x="563.0784" y="1252.2388">Write FW</text><text fill="#000000" font-family="sans-serif" font-size="13" lengthAdjust="spacing" textLength="92.9741" x="563.0784" y="1267.3716">image to flash</text><polygon fill="#181818" points="407.1184,1297.5703,397.1184,1301.5703,407.1184,1305.5703,403.1184,1301.5703" style="stroke:#181818;stroke-width:1.0;"/><line style="stroke:#181818;stroke-width:1.0;" x1="401.1184" x2="541.0784" y1="1301.5703" y2="1301.5703"/><text fill="#000000" font-family="sans-serif" font-size="13" lengthAdjust="spacing" textLength="43.9512" x="413.1184" y="1296.5044">Return</text><polygon fill="#181818" points="204.1462,1326.7031,194.1462,1330.7031,204.1462,1334.7031,200.1462,1330.7031" style="stroke:#181818;stroke-width:1.0;"/><line style="stroke:#181818;stroke-width:1.0;" x1="198.1462" x2="385.1184" y1="1330.7031" y2="1330.7031"/><text fill="#000000" font-family="sans-serif" font-size="13" lengthAdjust="spacing" textLength="46.2871" x="210.1462" y="1325.6372">Reboot</text><!--SRC=[TLJ1Rjim3BthAxWC65gq6NRP9IW2j5c25bYMekxQ0VCmABOI2vKbGvAJPby_Kd8SEqrljiJtI3xgyKDb-Rhau8Nv1zxMWZ7t8dN5BI_15JmtMwdNLrTRwOk_yNyyZe67k1_6YqVnwg-LNEjIQ7ySd-6Pi4U86vwzhAsfTJunojXZpCV9TCOOXdkPoOfh3uEVqzaT98LGQW3SmI9XFFDomxsWxsvePgnO6kFPqhm2mNgtzzF-_xTVKvOPfGIo6UtWYLl9bqeuohBXrZ6XSq2gNjJ3zPpkS-uv69iB2r-_C5PeR0tC1d_fvgYh4Jo8oWg7UZH8gOdeCjMkpWhY2qtUBcxSPTj5gYStyobcmohSpdbHWW_rCMOgpmuP5macg3LCUELg9QwhwhDOIRP8u6euX5l1iSeHV3Sy3rmRhcHEwZNn84k-5XG-78v3UID8F1O1PvLnJYxL3bp6FSvIvETzLDF87aog8PXlw69bRCb9DE1BK_izCCfA7GJKkEqN6IukIAemGaPSWNH_Fu998R8NGDwsYAXg9g8aGTe-v06xFrJVrW0hQyfG-K76JXx3CIOJE84OV-RE8pa9UeXxjXB1MHFTOVScS7SwsmixiQ8hVPmmlWkxErd9dNQUAmN9_2xL1KvFeQ5Q_KuX5alFfKurdZhKFjMwBfS8Uh-M9h9NIoTyJCPfPfDuz0zKVAVmCJ565wH8G_TcEgUxGnGo2UInfX8srI5FQN8H6J4ZMhF9E7qLMUtnXeuEkS9OJnL-I8C0cYG9uN4WgPuc3uyG7oMB2VP2n3c6-zCir5clJf9_Nz7UO4-DhrXOFuEUJmOiYs9t5z1iVXzUrV1t8VDSw3_3CHrrjqtaFWKUp9uRQbeVgotx14TSUBPVODtzX2dUh2SyWvBlW2jdO8dldZA1MSMr9F4HOXsfneF-peWwZWE-DoqwU6TQmNcaTLHPYLLmN8afsxVOubVR1jrTNCrjr-Re3yZGA6ZK46g5hwqcsuOaLgwBrg-pvrJ7vOKsNIdkYbXl- -ue9S7RzZhUQVTJOyB_]--></g></svg>